<?xml version="1.0" encoding="utf-8"?>
<svg viewBox="0 0 194.504 204.241" xmlns="http://www.w3.org/2000/svg">
  <g transform="matrix(1.086153, 0, 0, 1.086153, -101.049745, -165.305056)" style="">
    <path d="M 153.299 157.323 C 163.199 157.323 172.099 158.823 179.999 161.823 C 187.899 164.823 194.172 169.25 198.819 175.103 C 203.472 180.95 205.799 188.073 205.799 196.473 L 174.149 196.473 C 174.149 192.173 172.249 188.7 168.449 186.053 C 164.649 183.4 160.049 182.073 154.649 182.073 C 146.849 182.073 140.949 184.15 136.949 188.303 C 132.949 192.45 130.949 198.323 130.949 205.923 L 130.949 215.523 C 130.949 223.123 132.949 229 136.949 233.153 C 140.949 237.3 146.849 239.373 154.649 239.373 C 160.049 239.373 164.649 238.1 168.449 235.553 C 172.249 233 174.149 229.723 174.149 225.723 L 150.749 225.723 L 150.749 204.723 L 205.799 204.723 L 205.799 262.323 L 188.699 262.323 L 185.399 252.123 C 175.999 260.123 163.699 264.123 148.499 264.123 C 131.399 264.123 118.549 259.646 109.949 250.693 C 101.349 241.746 97.049 228.423 97.049 210.723 C 97.049 193.223 101.926 179.95 111.679 170.903 C 121.426 161.85 135.299 157.323 153.299 157.323 Z" transform="matrix(1, 0, 0, 1.0866049528121948, -4.014464855194092, -18.75478172302246)" style="white-space: pre; fill: rgb(255, 255, 255);"/>
    <path d="M 180.688 306.813 L 180.688 203.613 L 264.088 203.613 L 264.088 228.363 L 213.838 228.363 L 213.838 246.063 L 257.038 246.063 L 257.038 269.763 L 213.838 269.763 L 213.838 306.813 L 180.688 306.813 Z" transform="matrix(1, 0, 0, 1, 0, 0)" style="white-space: pre; fill: rgb(255, 255, 255);"/>
    <path d="M 106.603 312.041 C 108.663 312.041 110.52 312.354 112.173 312.981 C 113.82 313.608 115.13 314.531 116.103 315.751 C 117.07 316.971 117.553 318.458 117.553 320.211 L 110.953 320.211 C 110.953 319.311 110.556 318.584 109.763 318.031 C 108.97 317.478 108.01 317.201 106.883 317.201 C 105.256 317.201 104.023 317.634 103.183 318.501 C 102.35 319.368 101.933 320.594 101.933 322.181 L 101.933 324.181 C 101.933 325.768 102.35 326.994 103.183 327.861 C 104.023 328.728 105.256 329.161 106.883 329.161 C 108.01 329.161 108.97 328.894 109.763 328.361 C 110.556 327.828 110.953 327.144 110.953 326.311 L 106.063 326.311 L 106.063 321.931 L 117.553 321.931 L 117.553 333.951 L 113.983 333.951 L 113.293 331.821 C 111.333 333.494 108.766 334.331 105.593 334.331 C 102.026 334.331 99.346 333.394 97.553 331.521 C 95.76 329.654 94.863 326.874 94.863 323.181 C 94.863 319.534 95.88 316.764 97.913 314.871 C 99.946 312.984 102.843 312.041 106.603 312.041 ZM 134.543 333.951 L 134.543 312.421 L 153.163 312.421 L 153.163 317.581 L 141.453 317.581 L 141.453 320.551 L 151.473 320.551 L 151.473 325.501 L 141.453 325.501 L 141.453 328.791 L 153.383 328.791 L 153.383 333.951 L 134.543 333.951 ZM 169.839 333.951 L 169.839 312.421 L 187.239 312.421 L 187.239 317.581 L 176.749 317.581 L 176.749 321.271 L 185.769 321.271 L 185.769 326.221 L 176.749 326.221 L 176.749 333.951 L 169.839 333.951 ZM 223.854 319.021 C 223.854 320.334 223.497 321.524 222.784 322.591 C 222.077 323.651 221.044 324.434 219.684 324.941 L 224.474 333.951 L 216.714 333.951 L 212.894 326.091 L 210.324 326.091 L 210.324 333.951 L 203.414 333.951 L 203.414 312.421 L 216.584 312.421 C 218.13 312.421 219.45 312.718 220.544 313.311 C 221.644 313.904 222.47 314.708 223.024 315.721 C 223.577 316.734 223.854 317.834 223.854 319.021 Z M 216.804 319.301 C 216.804 318.741 216.617 318.271 216.244 317.891 C 215.87 317.518 215.41 317.331 214.864 317.331 L 210.324 317.331 L 210.324 321.301 L 214.864 321.301 C 215.41 321.301 215.87 321.111 216.244 320.731 C 216.617 320.344 216.804 319.868 216.804 319.301 ZM 250.63 312.041 C 254.344 312.041 257.214 312.991 259.24 314.891 C 261.26 316.791 262.27 319.554 262.27 323.181 C 262.27 326.814 261.26 329.581 259.24 331.481 C 257.214 333.381 254.344 334.331 250.63 334.331 C 246.917 334.331 244.054 333.384 242.04 331.491 C 240.027 329.604 239.02 326.834 239.02 323.181 C 239.02 319.534 240.027 316.764 242.04 314.871 C 244.054 312.984 246.917 312.041 250.63 312.041 Z M 250.63 317.201 C 249.15 317.201 248.024 317.651 247.25 318.551 C 246.477 319.451 246.09 320.661 246.09 322.181 L 246.09 324.181 C 246.09 325.708 246.477 326.921 247.25 327.821 C 248.024 328.714 249.15 329.161 250.63 329.161 C 252.11 329.161 253.244 328.714 254.03 327.821 C 254.81 326.921 255.2 325.708 255.2 324.181 L 255.2 322.181 C 255.2 320.661 254.81 319.451 254.03 318.551 C 253.244 317.651 252.11 317.201 250.63 317.201 Z" transform="matrix(1, 0, 0, 1, 0, 0)" style="fill: rgb(255, 255, 255); text-transform: uppercase; white-space: pre;"/>
  </g>
</svg>