<?xml version="1.0" encoding="utf-8"?>
<svg viewBox="0 0 298.608 271.845" xmlns="http://www.w3.org/2000/svg">
  <g transform="matrix(1.579717, 0, 0, 1.579717, -136.301775, -234.987629)" style="">
    <path d="M 153.299 157.323 C 163.199 157.323 172.099 158.823 179.999 161.823 C 187.899 164.823 194.172 169.25 198.819 175.103 C 203.472 180.95 205.799 188.073 205.799 196.473 L 174.149 196.473 C 174.149 192.173 172.249 188.7 168.449 186.053 C 164.649 183.4 160.049 182.073 154.649 182.073 C 146.849 182.073 140.949 184.15 136.949 188.303 C 132.949 192.45 130.949 198.323 130.949 205.923 L 130.949 215.523 C 130.949 223.123 132.949 229 136.949 233.153 C 140.949 237.3 146.849 239.373 154.649 239.373 C 160.049 239.373 164.649 238.1 168.449 235.553 C 172.249 233 174.149 229.723 174.149 225.723 L 150.749 225.723 L 150.749 204.723 L 205.799 204.723 L 205.799 262.323 L 188.699 262.323 L 185.399 252.123 C 175.999 260.123 163.699 264.123 148.499 264.123 C 131.399 264.123 118.549 259.646 109.949 250.693 C 101.349 241.746 97.049 228.423 97.049 210.723 C 97.049 193.223 101.926 179.95 111.679 170.903 C 121.426 161.85 135.299 157.323 153.299 157.323 Z" transform="matrix(1, 0, 0, 1.0866049528121948, -4.014464855194092, -18.75478172302246)" style="fill: rgb(255, 255, 255); white-space: pre;"/>
    <path d="M 180.688 306.813 L 180.688 203.613 L 264.088 203.613 L 264.088 228.363 L 213.838 228.363 L 213.838 246.063 L 257.038 246.063 L 257.038 269.763 L 213.838 269.763 L 213.838 306.813 L 180.688 306.813 Z" transform="matrix(1, 0, 0, 1, 0, 0)" style="fill: rgb(255, 255, 255); white-space: pre;"/>
  </g>
</svg>